<svg width="15" height="15" viewBox="0 0 15 15" fill="none" xmlns="http://www.w3.org/2000/svg">
<path d="M1.4101 9.87072V1.4101H0V0H2.11515C2.50455 0 2.82021 0.315666 2.82021 0.705052V9.16567H11.5899L13 3.52526H4.23031V2.11515H13.9031C14.2925 2.11515 14.6081 2.43082 14.6081 2.82021C14.6081 2.87785 14.6011 2.93529 14.587 2.99121L12.8244 10.0417C12.746 10.3556 12.464 10.5758 12.1404 10.5758H2.11515C1.72577 10.5758 1.4101 10.2601 1.4101 9.87072ZM2.82021 14.8061C2.04143 14.8061 1.4101 14.1748 1.4101 13.396C1.4101 12.6172 2.04143 11.9859 2.82021 11.9859C3.59899 11.9859 4.23031 12.6172 4.23031 13.396C4.23031 14.1748 3.59899 14.8061 2.82021 14.8061ZM11.2808 14.8061C10.502 14.8061 9.87074 14.1748 9.87074 13.396C9.87074 12.6172 10.502 11.9859 11.2808 11.9859C12.0596 11.9859 12.6909 12.6172 12.6909 13.396C12.6909 14.1748 12.0596 14.8061 11.2808 14.8061Z" fill="white"/>
</svg>
